<svg width="897" height="241" viewBox="0 0 897 241" fill="none" xmlns="http://www.w3.org/2000/svg">
<rect width="897" height="241" fill="white"/>
<path d="M280 20H559V187H280V20Z" stroke="#E71578" stroke-width="2"/>
<path d="M470.667 160C470.667 157.054 473.054 154.667 476 154.667C478.946 154.667 481.333 157.054 481.333 160C481.333 162.946 478.946 165.333 476 165.333C473.054 165.333 470.667 162.946 470.667 160ZM743.707 199.293C744.098 199.683 744.098 200.317 743.707 200.707L737.343 207.071C736.953 207.462 736.319 207.462 735.929 207.071C735.538 206.681 735.538 206.047 735.929 205.657L741.586 200L735.929 194.343C735.538 193.953 735.538 193.319 735.929 192.929C736.319 192.538 736.953 192.538 737.343 192.929L743.707 199.293ZM623.977 200V199V200ZM583.992 160.013L583.992 161.013L583.992 160.013ZM476 159L583.992 159.013L583.992 161.013L476 161L476 159ZM623.977 199H743V201H623.977V199ZM604.983 180.006C604.983 190.496 613.487 199 623.977 199V201C612.383 201 602.983 191.601 602.983 180.006H604.983ZM583.992 159.013C595.586 159.014 604.983 168.413 604.983 180.006H602.983C602.983 169.517 594.481 161.014 583.992 161.013L583.992 159.013Z" fill="#0972D3"/>
<path d="M470.667 132C470.667 134.946 473.054 137.333 476 137.333C478.946 137.333 481.333 134.946 481.333 132C481.333 129.054 478.946 126.667 476 126.667C473.054 126.667 470.667 129.054 470.667 132ZM741.707 95.7071C742.098 95.3166 742.098 94.6834 741.707 94.2929L735.343 87.9289C734.953 87.5384 734.319 87.5384 733.929 87.9289C733.538 88.3195 733.538 88.9526 733.929 89.3431L739.586 95L733.929 100.657C733.538 101.047 733.538 101.681 733.929 102.071C734.319 102.462 734.953 102.462 735.343 102.071L741.707 95.7071ZM476 133L584.533 132.988L584.533 130.988L476 131L476 133ZM621.519 96H741V94H621.519V96ZM604.025 113.494C604.025 103.832 611.857 96 621.519 96V94C610.753 94 602.025 102.728 602.025 113.494H604.025ZM584.533 132.988C595.298 132.987 604.025 124.26 604.025 113.494H602.025C602.025 123.155 594.194 130.987 584.533 130.988L584.533 132.988Z" fill="#0972D3"/>
<path d="M475.667 146C475.667 148.946 478.054 151.333 481 151.333C483.946 151.333 486.333 148.946 486.333 146C486.333 143.054 483.946 140.667 481 140.667C478.054 140.667 475.667 143.054 475.667 146ZM742.707 146.707C743.098 146.317 743.098 145.683 742.707 145.293L736.343 138.929C735.953 138.538 735.319 138.538 734.929 138.929C734.538 139.319 734.538 139.953 734.929 140.343L740.586 146L734.929 151.657C734.538 152.047 734.538 152.681 734.929 153.071C735.319 153.462 735.953 153.462 736.343 153.071L742.707 146.707ZM481 147H742V145H481V147Z" fill="#0972D3"/>
<path d="M135.667 200C135.667 202.946 138.054 205.333 141 205.333C143.946 205.333 146.333 202.946 146.333 200C146.333 197.054 143.946 194.667 141 194.667C138.054 194.667 135.667 197.054 135.667 200ZM311.707 160.707C312.098 160.317 312.098 159.683 311.707 159.293L305.343 152.929C304.953 152.538 304.319 152.538 303.929 152.929C303.538 153.319 303.538 153.953 303.929 154.343L309.586 160L303.929 165.657C303.538 166.047 303.538 166.681 303.929 167.071C304.319 167.462 304.953 167.462 305.343 167.071L311.707 160.707ZM141 201L202.497 200.989L202.497 198.989L141 199L141 201ZM242.482 161H311V159H242.482V161ZM223.488 179.994C223.488 169.504 231.992 161 242.482 161V159C230.887 159 221.488 168.4 221.488 179.994H223.488ZM202.497 200.989C214.09 200.987 223.488 191.588 223.488 179.994H221.488C221.488 190.483 212.986 198.987 202.497 198.989L202.497 200.989Z" fill="#0972D3"/>
<path d="M135.667 90C135.667 87.0545 138.054 84.6667 141 84.6667C143.946 84.6667 146.333 87.0545 146.333 90C146.333 92.9455 143.946 95.3333 141 95.3333C138.054 95.3333 135.667 92.9455 135.667 90ZM311.707 127.293C312.098 127.683 312.098 128.317 311.707 128.707L305.343 135.071C304.953 135.462 304.319 135.462 303.929 135.071C303.538 134.681 303.538 134.047 303.929 133.657L309.586 128L303.929 122.343C303.538 121.953 303.538 121.319 303.929 120.929C304.319 120.538 304.953 120.538 305.343 120.929L311.707 127.293ZM203.496 90.0108L203.496 91.0108L203.496 90.0108ZM141 89L203.496 89.0108L203.496 91.0108L141 91L141 89ZM241.482 127H311V129H241.482V127ZM223.488 109.005C223.488 118.944 231.544 127 241.482 127V129C230.439 129 221.488 120.048 221.488 109.005H223.488ZM203.496 89.0108C214.538 89.0127 223.488 97.964 223.488 109.005H221.488C221.488 99.0685 213.433 91.0125 203.496 91.0108L203.496 89.0108Z" fill="#0972D3"/>
<rect x="320" y="113" width="178" height="61" fill="white" stroke="#D1D5DB" stroke-width="2"/>
<path d="M395.53 150V138.912H402.826V140.768H397.93V143.392H401.914V145.248H397.93V148.144H402.826V150H395.53ZM406.588 150L403.484 141.824H405.964L407.708 147.904L409.484 141.824H411.9L408.812 150H406.588ZM414.594 146.48C414.637 147.184 414.85 147.696 415.234 148.016C415.618 148.325 416.221 148.48 417.042 148.48C417.757 148.48 418.589 148.347 419.538 148.08V149.632C419.165 149.824 418.717 149.973 418.194 150.08C417.682 150.187 417.149 150.24 416.594 150.24C415.24 150.24 414.205 149.872 413.49 149.136C412.786 148.4 412.434 147.323 412.434 145.904C412.434 144.539 412.786 143.477 413.49 142.72C414.194 141.963 415.17 141.584 416.418 141.584C417.474 141.584 418.285 141.877 418.85 142.464C419.426 143.04 419.714 143.867 419.714 144.944C419.714 145.179 419.698 145.445 419.666 145.744C419.634 146.043 419.597 146.288 419.554 146.48H414.594ZM416.338 143.2C415.816 143.2 415.4 143.36 415.09 143.68C414.792 143.989 414.621 144.443 414.578 145.04H417.714V144.768C417.714 143.723 417.256 143.2 416.338 143.2ZM426.675 150V144.64C426.675 144.203 426.579 143.883 426.387 143.68C426.195 143.477 425.901 143.376 425.507 143.376C424.92 143.376 424.339 143.557 423.763 143.92V150H421.427V141.824H423.347L423.571 142.704C424.531 141.957 425.555 141.584 426.643 141.584C427.4 141.584 427.981 141.792 428.387 142.208C428.803 142.613 429.011 143.195 429.011 143.952V150H426.675ZM436.007 149.792C435.431 150.016 434.786 150.128 434.071 150.128C433.165 150.128 432.493 149.915 432.055 149.488C431.629 149.061 431.415 148.4 431.415 147.504V143.552H430.183V142.112L431.479 141.856L431.831 139.616H433.751V141.824H435.959V143.552H433.751V147.392C433.751 147.733 433.837 147.973 434.007 148.112C434.178 148.251 434.466 148.32 434.871 148.32C435.202 148.32 435.581 148.288 436.007 148.224V149.792ZM441.468 150V138.16H443.804V142.448C444.113 142.181 444.476 141.973 444.892 141.824C445.308 141.664 445.718 141.584 446.124 141.584C447.158 141.584 447.974 141.963 448.572 142.72C449.18 143.477 449.484 144.501 449.484 145.792C449.484 146.635 449.345 147.387 449.068 148.048C448.79 148.709 448.39 149.232 447.868 149.616C447.345 149.989 446.742 150.176 446.06 150.176C445.569 150.176 445.11 150.091 444.684 149.92C444.257 149.749 443.9 149.509 443.612 149.2L443.404 150H441.468ZM445.372 143.344C444.817 143.344 444.294 143.488 443.804 143.776V147.984C444.273 148.272 444.796 148.416 445.372 148.416C445.969 148.416 446.406 148.213 446.684 147.808C446.972 147.403 447.116 146.763 447.116 145.888C447.116 145.003 446.977 144.357 446.7 143.952C446.422 143.547 445.98 143.344 445.372 143.344ZM456.672 150L456.448 149.136C455.498 149.872 454.506 150.24 453.472 150.24C452.746 150.24 452.181 150.027 451.776 149.6C451.37 149.163 451.168 148.565 451.168 147.808V141.824H453.504V147.152C453.504 148.016 453.877 148.448 454.624 148.448C455.178 148.448 455.722 148.277 456.256 147.936V141.824H458.592V150H456.672ZM464.217 147.744C464.217 147.531 464.153 147.365 464.025 147.248C463.908 147.131 463.663 147.003 463.289 146.864L462.041 146.368C461.391 146.112 460.921 145.797 460.633 145.424C460.345 145.051 460.201 144.576 460.201 144C460.201 143.275 460.489 142.693 461.065 142.256C461.652 141.808 462.431 141.584 463.401 141.584C464.297 141.584 465.124 141.76 465.881 142.112V143.664C465.071 143.419 464.313 143.296 463.609 143.296C463.172 143.296 462.852 143.349 462.649 143.456C462.447 143.563 462.345 143.733 462.345 143.968C462.345 144.149 462.404 144.299 462.521 144.416C462.649 144.523 462.911 144.656 463.305 144.816L464.521 145.312C465.183 145.579 465.652 145.888 465.929 146.24C466.217 146.592 466.361 147.051 466.361 147.616C466.361 148.405 466.057 149.045 465.449 149.536C464.852 150.016 464.063 150.256 463.081 150.256C461.983 150.256 461.012 150.037 460.169 149.6V148.048C461.225 148.379 462.191 148.544 463.065 148.544C463.833 148.544 464.217 148.277 464.217 147.744Z" fill="black"/>
<path d="M388.147 65L387.363 62.472H383.571L382.819 65H380.307L384.211 53.912H386.851L390.755 65H388.147ZM384.083 60.744H386.867L385.459 56.104L384.083 60.744ZM402.02 65V59.464C402.02 58.7387 401.695 58.376 401.044 58.376C400.468 58.376 399.887 58.5147 399.3 58.792V58.952V65H396.964V59.464C396.964 58.7387 396.639 58.376 395.988 58.376C395.391 58.376 394.804 58.52 394.228 58.808V65H391.892V56.824H393.812L394.02 57.608C394.585 57.2347 395.092 56.9733 395.54 56.824C395.999 56.664 396.468 56.584 396.948 56.584C397.908 56.584 398.585 56.9253 398.98 57.608C399.524 57.2453 400.036 56.984 400.516 56.824C400.996 56.664 401.492 56.584 402.004 56.584C402.751 56.584 403.327 56.792 403.732 57.208C404.148 57.624 404.356 58.2053 404.356 58.952V65H402.02ZM411.172 65L410.98 64.28C410.649 64.5787 410.265 64.8187 409.828 65C409.401 65.1707 408.985 65.256 408.58 65.256C407.79 65.256 407.156 65.032 406.676 64.584C406.206 64.136 405.972 63.5387 405.972 62.792C405.972 62.28 406.1 61.832 406.356 61.448C406.612 61.0533 406.98 60.744 407.46 60.52C407.94 60.296 408.505 60.184 409.156 60.184C409.668 60.184 410.233 60.2533 410.852 60.392V59.592C410.852 59.1013 410.75 58.7653 410.548 58.584C410.345 58.4027 409.972 58.312 409.428 58.312C408.553 58.312 407.588 58.4773 406.532 58.808V57.256C406.926 57.0533 407.422 56.8933 408.02 56.776C408.617 56.648 409.225 56.584 409.844 56.584C410.942 56.584 411.742 56.808 412.244 57.256C412.756 57.6933 413.012 58.3867 413.012 59.336V65H411.172ZM409.236 63.688C409.502 63.688 409.774 63.6293 410.052 63.512C410.34 63.3947 410.606 63.2347 410.852 63.032V61.64C410.382 61.5653 409.961 61.528 409.588 61.528C408.66 61.528 408.196 61.9013 408.196 62.648C408.196 62.9787 408.286 63.2347 408.468 63.416C408.649 63.5973 408.905 63.688 409.236 63.688ZM414.53 65V63.336L418.738 58.552H414.69V56.824H421.314V58.488L417.058 63.272H421.394V65H414.53ZM426.425 65.24C425.155 65.24 424.163 64.8613 423.449 64.104C422.734 63.336 422.377 62.2693 422.377 60.904C422.377 59.5493 422.734 58.4933 423.449 57.736C424.163 56.968 425.155 56.584 426.425 56.584C427.694 56.584 428.686 56.968 429.401 57.736C430.115 58.4933 430.473 59.5493 430.473 60.904C430.473 62.2693 430.115 63.336 429.401 64.104C428.686 64.8613 427.694 65.24 426.425 65.24ZM426.425 63.448C427.545 63.448 428.105 62.6 428.105 60.904C428.105 59.2187 427.545 58.376 426.425 58.376C425.305 58.376 424.745 59.2187 424.745 60.904C424.745 62.6 425.305 63.448 426.425 63.448ZM437.46 65V59.64C437.46 59.2027 437.364 58.8827 437.172 58.68C436.98 58.4773 436.687 58.376 436.292 58.376C435.706 58.376 435.124 58.5573 434.548 58.92V65H432.212V56.824H434.132L434.356 57.704C435.316 56.9573 436.34 56.584 437.428 56.584C438.186 56.584 438.767 56.792 439.172 57.208C439.588 57.6133 439.796 58.1947 439.796 58.952V65H437.46ZM446.197 65V53.912H453.493V55.768H448.597V58.392H452.581V60.248H448.597V63.144H453.493V65H446.197ZM457.255 65L454.151 56.824H456.631L458.375 62.904L460.151 56.824H462.567L459.479 65H457.255ZM465.261 61.48C465.304 62.184 465.517 62.696 465.901 63.016C466.285 63.3253 466.888 63.48 467.709 63.48C468.424 63.48 469.256 63.3467 470.205 63.08V64.632C469.832 64.824 469.384 64.9733 468.861 65.08C468.349 65.1867 467.816 65.24 467.261 65.24C465.907 65.24 464.872 64.872 464.157 64.136C463.453 63.4 463.101 62.3227 463.101 60.904C463.101 59.5387 463.453 58.4773 464.157 57.72C464.861 56.9627 465.837 56.584 467.085 56.584C468.141 56.584 468.952 56.8773 469.517 57.464C470.093 58.04 470.381 58.8667 470.381 59.944C470.381 60.1787 470.365 60.4453 470.333 60.744C470.301 61.0427 470.264 61.288 470.221 61.48H465.261ZM467.005 58.2C466.483 58.2 466.067 58.36 465.757 58.68C465.459 58.9893 465.288 59.4427 465.245 60.04H468.381V59.768C468.381 58.7227 467.923 58.2 467.005 58.2ZM477.342 65V59.64C477.342 59.2027 477.246 58.8827 477.054 58.68C476.862 58.4773 476.568 58.376 476.174 58.376C475.587 58.376 475.006 58.5573 474.43 58.92V65H472.094V56.824H474.014L474.238 57.704C475.198 56.9573 476.222 56.584 477.31 56.584C478.067 56.584 478.648 56.792 479.054 57.208C479.47 57.6133 479.678 58.1947 479.678 58.952V65H477.342ZM486.675 64.792C486.099 65.016 485.453 65.128 484.739 65.128C483.832 65.128 483.16 64.9147 482.723 64.488C482.296 64.0613 482.083 63.4 482.083 62.504V58.552H480.851V57.112L482.147 56.856L482.499 54.616H484.419V56.824H486.627V58.552H484.419V62.392C484.419 62.7333 484.504 62.9733 484.675 63.112C484.845 63.2507 485.133 63.32 485.539 63.32C485.869 63.32 486.248 63.288 486.675 63.224V64.792ZM488.188 65V53.912H492.172C493.238 53.912 494.097 54.184 494.748 54.728C495.409 55.272 495.74 55.9813 495.74 56.856C495.74 57.4 495.612 57.8693 495.356 58.264C495.11 58.648 494.742 58.9467 494.252 59.16C494.934 59.3627 495.452 59.6987 495.804 60.168C496.166 60.6267 496.348 61.192 496.348 61.864C496.348 62.824 495.99 63.5867 495.276 64.152C494.561 64.7173 493.601 65 492.396 65H488.188ZM490.46 60.168V63.288H492.348C493.436 63.288 493.98 62.776 493.98 61.752C493.98 60.696 493.398 60.168 492.236 60.168H490.46ZM490.46 55.624V58.536H491.852C492.886 58.536 493.404 58.056 493.404 57.096C493.404 56.1147 492.929 55.624 491.98 55.624H490.46ZM498.057 65V56.824H499.977L500.265 58.04C500.692 57.5707 501.092 57.24 501.465 57.048C501.849 56.8453 502.254 56.744 502.681 56.744C502.884 56.744 503.097 56.76 503.321 56.792V58.952C503.022 58.888 502.692 58.856 502.329 58.856C501.636 58.856 500.99 58.9787 500.393 59.224V65H498.057ZM504.525 65V56.824H506.861V65H504.525ZM505.693 55.56C505.288 55.56 504.963 55.448 504.717 55.224C504.472 55 504.349 54.696 504.349 54.312C504.349 53.928 504.472 53.624 504.717 53.4C504.963 53.176 505.288 53.064 505.693 53.064C506.099 53.064 506.424 53.176 506.669 53.4C506.915 53.624 507.037 53.928 507.037 54.312C507.037 54.696 506.915 55 506.669 55.224C506.424 55.448 506.099 55.56 505.693 55.56ZM514.604 65L514.412 64.28C513.751 64.8773 512.967 65.176 512.06 65.176C511.388 65.176 510.796 65.0107 510.284 64.68C509.772 64.3387 509.372 63.848 509.084 63.208C508.807 62.568 508.668 61.816 508.668 60.952C508.668 59.6293 508.983 58.5733 509.612 57.784C510.242 56.984 511.074 56.584 512.108 56.584C512.951 56.584 513.682 56.824 514.3 57.304V53.16H516.636V65H514.604ZM512.828 63.416C513.34 63.416 513.831 63.2667 514.3 62.968V58.744C513.842 58.4773 513.314 58.344 512.716 58.344C512.151 58.344 511.73 58.5573 511.452 58.984C511.175 59.4 511.036 60.0347 511.036 60.888C511.036 61.7413 511.18 62.376 511.468 62.792C511.767 63.208 512.22 63.416 512.828 63.416ZM523.793 64.008C523.185 64.552 522.471 64.824 521.649 64.824C520.657 64.824 519.863 64.456 519.265 63.72C518.679 62.9733 518.385 61.9813 518.385 60.744C518.385 59.4853 518.684 58.4773 519.281 57.72C519.879 56.9627 520.679 56.584 521.681 56.584C522.129 56.584 522.551 56.664 522.945 56.824C523.34 56.984 523.692 57.2187 524.001 57.528L524.177 56.824H526.097V64.36C526.097 65.6613 525.735 66.6747 525.009 67.4C524.284 68.1253 523.281 68.488 522.001 68.488C520.967 68.488 519.985 68.2587 519.057 67.8V66.232C520.113 66.5627 521.025 66.728 521.793 66.728C522.497 66.728 523.004 66.5627 523.313 66.232C523.633 65.912 523.793 65.384 523.793 64.648V64.008ZM522.369 63.096C522.615 63.096 522.86 63.0587 523.105 62.984C523.361 62.8987 523.591 62.7867 523.793 62.648V58.712C523.356 58.4453 522.844 58.312 522.257 58.312C521.233 58.312 520.721 59.1013 520.721 60.68C520.721 61.5013 520.855 62.1093 521.121 62.504C521.388 62.8987 521.804 63.096 522.369 63.096ZM529.997 61.48C530.039 62.184 530.253 62.696 530.637 63.016C531.021 63.3253 531.623 63.48 532.445 63.48C533.159 63.48 533.991 63.3467 534.941 63.08V64.632C534.567 64.824 534.119 64.9733 533.597 65.08C533.085 65.1867 532.551 65.24 531.997 65.24C530.642 65.24 529.607 64.872 528.893 64.136C528.189 63.4 527.837 62.3227 527.837 60.904C527.837 59.5387 528.189 58.4773 528.893 57.72C529.597 56.9627 530.573 56.584 531.821 56.584C532.877 56.584 533.687 56.8773 534.253 57.464C534.829 58.04 535.117 58.8667 535.117 59.944C535.117 60.1787 535.101 60.4453 535.069 60.744C535.037 61.0427 534.999 61.288 534.957 61.48H529.997ZM531.741 58.2C531.218 58.2 530.802 58.36 530.493 58.68C530.194 58.9893 530.023 59.4427 529.981 60.04H533.117V59.768C533.117 58.7227 532.658 58.2 531.741 58.2Z" fill="black"/>
<path fill-rule="evenodd" clip-rule="evenodd" d="M342.001 159.001H368.001V157.001H342.001V159.001ZM366.88 132.009L365.153 130.998L361.544 137.16L363.271 138.17L366.88 132.009ZM373.567 138.594L367.323 142.147L368.312 143.885L374.556 140.332L373.567 138.594ZM370.002 148.995L370 150.995L377 151.001L377.002 149.001L370.002 148.995ZM333 151.001L340 151.007L340.002 149.007L333.002 149.001L333 151.001ZM336.454 138.562L335.462 140.298L341.701 143.863L342.693 142.126L336.454 138.562ZM348.48 137.148L344.882 130.981L343.153 131.989L346.751 138.156L348.48 137.148ZM356.001 129.002L354.001 129L353.994 136L355.994 136.002L356.001 129.002ZM344.095 147.196L349.114 138.501C349.293 138.192 349.623 138.001 349.981 138.001H360.021C360.378 138.001 360.708 138.192 360.887 138.501L365.907 147.196C366.086 147.505 366.086 147.886 365.907 148.196L362.071 154.838L360.339 153.838L363.887 147.696L359.443 140.001H350.558L346.115 147.696L349.662 153.838L347.93 154.838L344.095 148.196C343.916 147.886 343.916 147.505 344.095 147.196Z" fill="#E7157B"/>
<rect x="279" y="19" width="80" height="80" fill="#E7157B"/>
<path fill-rule="evenodd" clip-rule="evenodd" d="M332.657 85C330.514 85 328.77 83.247 328.77 81.091C328.77 78.935 330.514 77.182 332.657 77.182C334.8 77.182 336.544 78.935 336.544 81.091C336.544 83.247 334.8 85 332.657 85ZM324.133 68H313.798L308.63 59L313.798 50H324.133L329.3 59L324.133 68ZM306.621 40.818C304.478 40.818 302.734 39.065 302.734 36.909C302.734 34.753 304.478 33 306.621 33C308.765 33 310.509 34.753 310.509 36.909C310.509 39.065 308.765 40.818 306.621 40.818ZM332.657 75.182C331.919 75.182 331.215 75.325 330.564 75.576L326.34 68.41L326.117 68.543L331.309 59.5C331.486 59.19 331.486 58.81 331.309 58.5L325.568 48.5C325.39 48.19 325.061 48 324.706 48H314.258L314.299 47.976L310.427 41.404C311.692 40.32 312.498 38.708 312.498 36.909C312.498 33.651 309.862 31 306.621 31C303.381 31 300.745 33.651 300.745 36.909C300.745 40.167 303.381 42.818 306.621 42.818C307.36 42.818 308.064 42.675 308.715 42.424L312.33 48.557L306.62 58.5C306.443 58.81 306.443 59.19 306.62 59.5L312.363 69.5C312.541 69.81 312.869 70 313.224 70H324.706C324.789 70 324.87 69.987 324.947 69.968L328.852 76.596C327.586 77.68 326.781 79.292 326.781 81.091C326.781 84.349 329.416 87 332.657 87C335.898 87 338.533 84.349 338.533 81.091C338.533 77.833 335.898 75.182 332.657 75.182ZM338.584 51.104C336.441 51.104 334.698 49.351 334.698 47.195C334.698 45.039 336.441 43.286 338.584 43.286C340.727 43.286 342.472 45.039 342.472 47.195C342.472 49.351 340.727 51.104 338.584 51.104ZM345.866 58.5L342.092 51.925C343.527 50.846 344.46 49.13 344.46 47.195C344.46 43.937 341.825 41.286 338.584 41.286C337.76 41.286 336.974 41.459 336.261 41.77L333.184 36.409C333.007 36.1 332.678 35.909 332.323 35.909H319.995V37.909H331.749L334.596 42.869C333.438 43.949 332.709 45.486 332.709 47.195C332.709 50.453 335.345 53.104 338.584 53.104C339.188 53.104 339.772 53.011 340.321 52.84L343.858 59L338.892 67.648L340.614 68.648L345.866 59.5C346.044 59.19 346.044 58.81 345.866 58.5ZM300.229 74.247C298.085 74.247 296.341 72.493 296.341 70.338C296.341 68.182 298.085 66.429 300.229 66.429C302.372 66.429 304.116 68.182 304.116 70.338C304.116 72.493 302.372 74.247 300.229 74.247ZM303.477 75.258C305.059 74.198 306.105 72.389 306.105 70.338C306.105 67.08 303.469 64.429 300.229 64.429C299.29 64.429 298.406 64.657 297.619 65.052L294.143 59L299.902 48.971L298.179 47.971L292.133 58.5C291.956 58.81 291.956 59.19 292.133 59.5L296.005 66.24C294.983 67.304 294.352 68.747 294.352 70.338C294.352 73.596 296.988 76.247 300.229 76.247C300.717 76.247 301.19 76.18 301.644 76.066L304.816 81.591C304.994 81.9 305.322 82.091 305.677 82.091H318.006V80.091H306.251L303.477 75.258Z" fill="white"/>
<rect x="14" y="179" width="137" height="42" stroke="#89BDEE" stroke-width="2"/>
<circle cx="142.5" cy="201.5" r="7.5" fill="white"/>
<path d="M36.5481 204V192.912H43.8441V194.768H38.9481V197.392H42.9321V199.248H38.9481V202.144H43.8441V204H36.5481ZM47.6061 204L44.5021 195.824H46.9821L48.7261 201.904L50.5021 195.824H52.9181L49.8301 204H47.6061ZM55.6127 200.48C55.6554 201.184 55.8687 201.696 56.2527 202.016C56.6367 202.325 57.2394 202.48 58.0607 202.48C58.7754 202.48 59.6074 202.347 60.5567 202.08V203.632C60.1834 203.824 59.7354 203.973 59.2127 204.08C58.7007 204.187 58.1674 204.24 57.6127 204.24C56.2581 204.24 55.2234 203.872 54.5087 203.136C53.8047 202.4 53.4527 201.323 53.4527 199.904C53.4527 198.539 53.8047 197.477 54.5087 196.72C55.2127 195.963 56.1887 195.584 57.4367 195.584C58.4927 195.584 59.3034 195.877 59.8687 196.464C60.4447 197.04 60.7327 197.867 60.7327 198.944C60.7327 199.179 60.7167 199.445 60.6847 199.744C60.6527 200.043 60.6154 200.288 60.5727 200.48H55.6127ZM57.3567 197.2C56.8341 197.2 56.4181 197.36 56.1087 197.68C55.8101 197.989 55.6394 198.443 55.5967 199.04H58.7327V198.768C58.7327 197.723 58.2741 197.2 57.3567 197.2ZM67.693 204V198.64C67.693 198.203 67.597 197.883 67.405 197.68C67.213 197.477 66.9197 197.376 66.525 197.376C65.9383 197.376 65.357 197.557 64.781 197.92V204H62.445V195.824H64.365L64.589 196.704C65.549 195.957 66.573 195.584 67.661 195.584C68.4183 195.584 68.9997 195.792 69.405 196.208C69.821 196.613 70.029 197.195 70.029 197.952V204H67.693ZM77.0259 203.792C76.4499 204.016 75.8045 204.128 75.0899 204.128C74.1832 204.128 73.5112 203.915 73.0739 203.488C72.6472 203.061 72.4339 202.4 72.4339 201.504V197.552H71.2019V196.112L72.4979 195.856L72.8499 193.616H74.7699V195.824H76.9779V197.552H74.7699V201.392C74.7699 201.733 74.8552 201.973 75.0259 202.112C75.1965 202.251 75.4845 202.32 75.8899 202.32C76.2205 202.32 76.5992 202.288 77.0259 202.224V203.792ZM85.9582 201.744C85.9582 201.531 85.8942 201.365 85.7662 201.248C85.6489 201.131 85.4036 201.003 85.0302 200.864L83.7822 200.368C83.1316 200.112 82.6622 199.797 82.3742 199.424C82.0862 199.051 81.9422 198.576 81.9422 198C81.9422 197.275 82.2302 196.693 82.8062 196.256C83.3929 195.808 84.1716 195.584 85.1422 195.584C86.0382 195.584 86.8649 195.76 87.6222 196.112V197.664C86.8116 197.419 86.0542 197.296 85.3502 197.296C84.9129 197.296 84.5929 197.349 84.3902 197.456C84.1876 197.563 84.0862 197.733 84.0862 197.968C84.0862 198.149 84.1449 198.299 84.2622 198.416C84.3902 198.523 84.6516 198.656 85.0462 198.816L86.2622 199.312C86.9236 199.579 87.3929 199.888 87.6702 200.24C87.9582 200.592 88.1022 201.051 88.1022 201.616C88.1022 202.405 87.7982 203.045 87.1902 203.536C86.5929 204.016 85.8036 204.256 84.8222 204.256C83.7236 204.256 82.7529 204.037 81.9102 203.6V202.048C82.9662 202.379 83.9316 202.544 84.8062 202.544C85.5742 202.544 85.9582 202.277 85.9582 201.744ZM93.1632 204.24C91.8939 204.24 90.9019 203.861 90.1872 203.104C89.4726 202.336 89.1152 201.269 89.1152 199.904C89.1152 198.549 89.4726 197.493 90.1872 196.736C90.9019 195.968 91.8939 195.584 93.1632 195.584C94.4326 195.584 95.4246 195.968 96.1392 196.736C96.8539 197.493 97.2112 198.549 97.2112 199.904C97.2112 201.269 96.8539 202.336 96.1392 203.104C95.4246 203.861 94.4326 204.24 93.1632 204.24ZM93.1632 202.448C94.2832 202.448 94.8432 201.6 94.8432 199.904C94.8432 198.219 94.2832 197.376 93.1632 197.376C92.0432 197.376 91.4832 198.219 91.4832 199.904C91.4832 201.6 92.0432 202.448 93.1632 202.448ZM104.391 204L104.167 203.136C103.218 203.872 102.226 204.24 101.191 204.24C100.466 204.24 99.9006 204.027 99.4952 203.6C99.0899 203.163 98.8872 202.565 98.8872 201.808V195.824H101.223V201.152C101.223 202.016 101.597 202.448 102.343 202.448C102.898 202.448 103.442 202.277 103.975 201.936V195.824H106.311V204H104.391ZM108.465 204V195.824H110.385L110.673 197.04C111.1 196.571 111.5 196.24 111.873 196.048C112.257 195.845 112.662 195.744 113.089 195.744C113.292 195.744 113.505 195.76 113.729 195.792V197.952C113.43 197.888 113.1 197.856 112.737 197.856C112.044 197.856 111.398 197.979 110.801 198.224V204H108.465ZM120.773 203.648C120.485 203.819 120.139 203.947 119.733 204.032C119.328 204.128 118.907 204.176 118.469 204.176C117.168 204.176 116.171 203.813 115.477 203.088C114.795 202.363 114.453 201.317 114.453 199.952C114.453 198.597 114.816 197.541 115.541 196.784C116.267 196.027 117.275 195.648 118.565 195.648C119.344 195.648 120.064 195.819 120.725 196.16V197.712C120.096 197.531 119.52 197.44 118.997 197.44C118.251 197.44 117.701 197.632 117.349 198.016C116.997 198.389 116.821 198.987 116.821 199.808V200.032C116.821 200.843 116.992 201.44 117.333 201.824C117.685 202.197 118.224 202.384 118.949 202.384C119.472 202.384 120.08 202.288 120.773 202.096V203.648ZM123.94 200.48C123.982 201.184 124.196 201.696 124.58 202.016C124.964 202.325 125.566 202.48 126.388 202.48C127.102 202.48 127.934 202.347 128.884 202.08V203.632C128.51 203.824 128.062 203.973 127.54 204.08C127.028 204.187 126.494 204.24 125.94 204.24C124.585 204.24 123.55 203.872 122.836 203.136C122.132 202.4 121.78 201.323 121.78 199.904C121.78 198.539 122.132 197.477 122.836 196.72C123.54 195.963 124.516 195.584 125.764 195.584C126.82 195.584 127.63 195.877 128.196 196.464C128.772 197.04 129.06 197.867 129.06 198.944C129.06 199.179 129.044 199.445 129.012 199.744C128.98 200.043 128.942 200.288 128.9 200.48H123.94ZM125.684 197.2C125.161 197.2 124.745 197.36 124.436 197.68C124.137 197.989 123.966 198.443 123.924 199.04H127.06V198.768C127.06 197.723 126.601 197.2 125.684 197.2Z" fill="black"/>
<rect x="14" y="123" width="137" height="42" stroke="#89BDEE" stroke-width="2"/>
<path d="M134.667 144C134.667 146.946 137.054 149.333 140 149.333C142.946 149.333 145.333 146.946 145.333 144C145.333 141.054 142.946 138.667 140 138.667C137.054 138.667 134.667 141.054 134.667 144ZM311.707 144.707C312.098 144.317 312.098 143.683 311.707 143.293L305.343 136.929C304.953 136.538 304.319 136.538 303.929 136.929C303.538 137.319 303.538 137.953 303.929 138.343L309.586 144L303.929 149.657C303.538 150.047 303.538 150.681 303.929 151.071C304.319 151.462 304.953 151.462 305.343 151.071L311.707 144.707ZM140 145H311V143H140V145Z" fill="#0972D3"/>
<circle cx="141.5" cy="145.5" r="7.5" fill="white"/>
<path d="M36.5481 148V136.912H43.8441V138.768H38.9481V141.392H42.9321V143.248H38.9481V146.144H43.8441V148H36.5481ZM47.6061 148L44.5021 139.824H46.9821L48.7261 145.904L50.5021 139.824H52.9181L49.8301 148H47.6061ZM55.6127 144.48C55.6554 145.184 55.8687 145.696 56.2527 146.016C56.6367 146.325 57.2394 146.48 58.0607 146.48C58.7754 146.48 59.6074 146.347 60.5567 146.08V147.632C60.1834 147.824 59.7354 147.973 59.2127 148.08C58.7007 148.187 58.1674 148.24 57.6127 148.24C56.2581 148.24 55.2234 147.872 54.5087 147.136C53.8047 146.4 53.4527 145.323 53.4527 143.904C53.4527 142.539 53.8047 141.477 54.5087 140.72C55.2127 139.963 56.1887 139.584 57.4367 139.584C58.4927 139.584 59.3034 139.877 59.8687 140.464C60.4447 141.04 60.7327 141.867 60.7327 142.944C60.7327 143.179 60.7167 143.445 60.6847 143.744C60.6527 144.043 60.6154 144.288 60.5727 144.48H55.6127ZM57.3567 141.2C56.8341 141.2 56.4181 141.36 56.1087 141.68C55.8101 141.989 55.6394 142.443 55.5967 143.04H58.7327V142.768C58.7327 141.723 58.2741 141.2 57.3567 141.2ZM67.693 148V142.64C67.693 142.203 67.597 141.883 67.405 141.68C67.213 141.477 66.9197 141.376 66.525 141.376C65.9383 141.376 65.357 141.557 64.781 141.92V148H62.445V139.824H64.365L64.589 140.704C65.549 139.957 66.573 139.584 67.661 139.584C68.4183 139.584 68.9997 139.792 69.405 140.208C69.821 140.613 70.029 141.195 70.029 141.952V148H67.693ZM77.0259 147.792C76.4499 148.016 75.8045 148.128 75.0899 148.128C74.1832 148.128 73.5112 147.915 73.0739 147.488C72.6472 147.061 72.4339 146.4 72.4339 145.504V141.552H71.2019V140.112L72.4979 139.856L72.8499 137.616H74.7699V139.824H76.9779V141.552H74.7699V145.392C74.7699 145.733 74.8552 145.973 75.0259 146.112C75.1965 146.251 75.4845 146.32 75.8899 146.32C76.2205 146.32 76.5992 146.288 77.0259 146.224V147.792ZM85.9582 145.744C85.9582 145.531 85.8942 145.365 85.7662 145.248C85.6489 145.131 85.4036 145.003 85.0302 144.864L83.7822 144.368C83.1316 144.112 82.6622 143.797 82.3742 143.424C82.0862 143.051 81.9422 142.576 81.9422 142C81.9422 141.275 82.2302 140.693 82.8062 140.256C83.3929 139.808 84.1716 139.584 85.1422 139.584C86.0382 139.584 86.8649 139.76 87.6222 140.112V141.664C86.8116 141.419 86.0542 141.296 85.3502 141.296C84.9129 141.296 84.5929 141.349 84.3902 141.456C84.1876 141.563 84.0862 141.733 84.0862 141.968C84.0862 142.149 84.1449 142.299 84.2622 142.416C84.3902 142.523 84.6516 142.656 85.0462 142.816L86.2622 143.312C86.9236 143.579 87.3929 143.888 87.6702 144.24C87.9582 144.592 88.1022 145.051 88.1022 145.616C88.1022 146.405 87.7982 147.045 87.1902 147.536C86.5929 148.016 85.8036 148.256 84.8222 148.256C83.7236 148.256 82.7529 148.037 81.9102 147.6V146.048C82.9662 146.379 83.9316 146.544 84.8062 146.544C85.5742 146.544 85.9582 146.277 85.9582 145.744ZM93.1632 148.24C91.8939 148.24 90.9019 147.861 90.1872 147.104C89.4726 146.336 89.1152 145.269 89.1152 143.904C89.1152 142.549 89.4726 141.493 90.1872 140.736C90.9019 139.968 91.8939 139.584 93.1632 139.584C94.4326 139.584 95.4246 139.968 96.1392 140.736C96.8539 141.493 97.2112 142.549 97.2112 143.904C97.2112 145.269 96.8539 146.336 96.1392 147.104C95.4246 147.861 94.4326 148.24 93.1632 148.24ZM93.1632 146.448C94.2832 146.448 94.8432 145.6 94.8432 143.904C94.8432 142.219 94.2832 141.376 93.1632 141.376C92.0432 141.376 91.4832 142.219 91.4832 143.904C91.4832 145.6 92.0432 146.448 93.1632 146.448ZM104.391 148L104.167 147.136C103.218 147.872 102.226 148.24 101.191 148.24C100.466 148.24 99.9006 148.027 99.4952 147.6C99.0899 147.163 98.8872 146.565 98.8872 145.808V139.824H101.223V145.152C101.223 146.016 101.597 146.448 102.343 146.448C102.898 146.448 103.442 146.277 103.975 145.936V139.824H106.311V148H104.391ZM108.465 148V139.824H110.385L110.673 141.04C111.1 140.571 111.5 140.24 111.873 140.048C112.257 139.845 112.662 139.744 113.089 139.744C113.292 139.744 113.505 139.76 113.729 139.792V141.952C113.43 141.888 113.1 141.856 112.737 141.856C112.044 141.856 111.398 141.979 110.801 142.224V148H108.465ZM120.773 147.648C120.485 147.819 120.139 147.947 119.733 148.032C119.328 148.128 118.907 148.176 118.469 148.176C117.168 148.176 116.171 147.813 115.477 147.088C114.795 146.363 114.453 145.317 114.453 143.952C114.453 142.597 114.816 141.541 115.541 140.784C116.267 140.027 117.275 139.648 118.565 139.648C119.344 139.648 120.064 139.819 120.725 140.16V141.712C120.096 141.531 119.52 141.44 118.997 141.44C118.251 141.44 117.701 141.632 117.349 142.016C116.997 142.389 116.821 142.987 116.821 143.808V144.032C116.821 144.843 116.992 145.44 117.333 145.824C117.685 146.197 118.224 146.384 118.949 146.384C119.472 146.384 120.08 146.288 120.773 146.096V147.648ZM123.94 144.48C123.982 145.184 124.196 145.696 124.58 146.016C124.964 146.325 125.566 146.48 126.388 146.48C127.102 146.48 127.934 146.347 128.884 146.08V147.632C128.51 147.824 128.062 147.973 127.54 148.08C127.028 148.187 126.494 148.24 125.94 148.24C124.585 148.24 123.55 147.872 122.836 147.136C122.132 146.4 121.78 145.323 121.78 143.904C121.78 142.539 122.132 141.477 122.836 140.72C123.54 139.963 124.516 139.584 125.764 139.584C126.82 139.584 127.63 139.877 128.196 140.464C128.772 141.04 129.06 141.867 129.06 142.944C129.06 143.179 129.044 143.445 129.012 143.744C128.98 144.043 128.942 144.288 128.9 144.48H123.94ZM125.684 141.2C125.161 141.2 124.745 141.36 124.436 141.68C124.137 141.989 123.966 142.443 123.924 143.04H127.06V142.768C127.06 141.723 126.601 141.2 125.684 141.2Z" fill="black"/>
<rect x="14" y="67" width="137" height="42" stroke="#89BDEE" stroke-width="2"/>
<circle cx="142.5" cy="89.5" r="7.5" fill="white"/>
<path d="M36.5481 92V80.912H43.8441V82.768H38.9481V85.392H42.9321V87.248H38.9481V90.144H43.8441V92H36.5481ZM47.6061 92L44.5021 83.824H46.9821L48.7261 89.904L50.5021 83.824H52.9181L49.8301 92H47.6061ZM55.6127 88.48C55.6554 89.184 55.8687 89.696 56.2527 90.016C56.6367 90.3253 57.2394 90.48 58.0607 90.48C58.7754 90.48 59.6074 90.3467 60.5567 90.08V91.632C60.1834 91.824 59.7354 91.9733 59.2127 92.08C58.7007 92.1867 58.1674 92.24 57.6127 92.24C56.2581 92.24 55.2234 91.872 54.5087 91.136C53.8047 90.4 53.4527 89.3227 53.4527 87.904C53.4527 86.5387 53.8047 85.4773 54.5087 84.72C55.2127 83.9627 56.1887 83.584 57.4367 83.584C58.4927 83.584 59.3034 83.8773 59.8687 84.464C60.4447 85.04 60.7327 85.8667 60.7327 86.944C60.7327 87.1787 60.7167 87.4453 60.6847 87.744C60.6527 88.0427 60.6154 88.288 60.5727 88.48H55.6127ZM57.3567 85.2C56.8341 85.2 56.4181 85.36 56.1087 85.68C55.8101 85.9893 55.6394 86.4427 55.5967 87.04H58.7327V86.768C58.7327 85.7227 58.2741 85.2 57.3567 85.2ZM67.693 92V86.64C67.693 86.2027 67.597 85.8827 67.405 85.68C67.213 85.4773 66.9197 85.376 66.525 85.376C65.9383 85.376 65.357 85.5573 64.781 85.92V92H62.445V83.824H64.365L64.589 84.704C65.549 83.9573 66.573 83.584 67.661 83.584C68.4183 83.584 68.9997 83.792 69.405 84.208C69.821 84.6133 70.029 85.1947 70.029 85.952V92H67.693ZM77.0259 91.792C76.4499 92.016 75.8045 92.128 75.0899 92.128C74.1832 92.128 73.5112 91.9147 73.0739 91.488C72.6472 91.0613 72.4339 90.4 72.4339 89.504V85.552H71.2019V84.112L72.4979 83.856L72.8499 81.616H74.7699V83.824H76.9779V85.552H74.7699V89.392C74.7699 89.7333 74.8552 89.9733 75.0259 90.112C75.1965 90.2507 75.4845 90.32 75.8899 90.32C76.2205 90.32 76.5992 90.288 77.0259 90.224V91.792ZM85.9582 89.744C85.9582 89.5307 85.8942 89.3653 85.7662 89.248C85.6489 89.1307 85.4036 89.0027 85.0302 88.864L83.7822 88.368C83.1316 88.112 82.6622 87.7973 82.3742 87.424C82.0862 87.0507 81.9422 86.576 81.9422 86C81.9422 85.2747 82.2302 84.6933 82.8062 84.256C83.3929 83.808 84.1716 83.584 85.1422 83.584C86.0382 83.584 86.8649 83.76 87.6222 84.112V85.664C86.8116 85.4187 86.0542 85.296 85.3502 85.296C84.9129 85.296 84.5929 85.3493 84.3902 85.456C84.1876 85.5627 84.0862 85.7333 84.0862 85.968C84.0862 86.1493 84.1449 86.2987 84.2622 86.416C84.3902 86.5227 84.6516 86.656 85.0462 86.816L86.2622 87.312C86.9236 87.5787 87.3929 87.888 87.6702 88.24C87.9582 88.592 88.1022 89.0507 88.1022 89.616C88.1022 90.4053 87.7982 91.0453 87.1902 91.536C86.5929 92.016 85.8036 92.256 84.8222 92.256C83.7236 92.256 82.7529 92.0373 81.9102 91.6V90.048C82.9662 90.3787 83.9316 90.544 84.8062 90.544C85.5742 90.544 85.9582 90.2773 85.9582 89.744ZM93.1632 92.24C91.8939 92.24 90.9019 91.8613 90.1872 91.104C89.4726 90.336 89.1152 89.2693 89.1152 87.904C89.1152 86.5493 89.4726 85.4933 90.1872 84.736C90.9019 83.968 91.8939 83.584 93.1632 83.584C94.4326 83.584 95.4246 83.968 96.1392 84.736C96.8539 85.4933 97.2112 86.5493 97.2112 87.904C97.2112 89.2693 96.8539 90.336 96.1392 91.104C95.4246 91.8613 94.4326 92.24 93.1632 92.24ZM93.1632 90.448C94.2832 90.448 94.8432 89.6 94.8432 87.904C94.8432 86.2187 94.2832 85.376 93.1632 85.376C92.0432 85.376 91.4832 86.2187 91.4832 87.904C91.4832 89.6 92.0432 90.448 93.1632 90.448ZM104.391 92L104.167 91.136C103.218 91.872 102.226 92.24 101.191 92.24C100.466 92.24 99.9006 92.0267 99.4952 91.6C99.0899 91.1627 98.8872 90.5653 98.8872 89.808V83.824H101.223V89.152C101.223 90.016 101.597 90.448 102.343 90.448C102.898 90.448 103.442 90.2773 103.975 89.936V83.824H106.311V92H104.391ZM108.465 92V83.824H110.385L110.673 85.04C111.1 84.5707 111.5 84.24 111.873 84.048C112.257 83.8453 112.662 83.744 113.089 83.744C113.292 83.744 113.505 83.76 113.729 83.792V85.952C113.43 85.888 113.1 85.856 112.737 85.856C112.044 85.856 111.398 85.9787 110.801 86.224V92H108.465ZM120.773 91.648C120.485 91.8187 120.139 91.9467 119.733 92.032C119.328 92.128 118.907 92.176 118.469 92.176C117.168 92.176 116.171 91.8133 115.477 91.088C114.795 90.3627 114.453 89.3173 114.453 87.952C114.453 86.5973 114.816 85.5413 115.541 84.784C116.267 84.0267 117.275 83.648 118.565 83.648C119.344 83.648 120.064 83.8187 120.725 84.16V85.712C120.096 85.5307 119.52 85.44 118.997 85.44C118.251 85.44 117.701 85.632 117.349 86.016C116.997 86.3893 116.821 86.9867 116.821 87.808V88.032C116.821 88.8427 116.992 89.44 117.333 89.824C117.685 90.1973 118.224 90.384 118.949 90.384C119.472 90.384 120.08 90.288 120.773 90.096V91.648ZM123.94 88.48C123.982 89.184 124.196 89.696 124.58 90.016C124.964 90.3253 125.566 90.48 126.388 90.48C127.102 90.48 127.934 90.3467 128.884 90.08V91.632C128.51 91.824 128.062 91.9733 127.54 92.08C127.028 92.1867 126.494 92.24 125.94 92.24C124.585 92.24 123.55 91.872 122.836 91.136C122.132 90.4 121.78 89.3227 121.78 87.904C121.78 86.5387 122.132 85.4773 122.836 84.72C123.54 83.9627 124.516 83.584 125.764 83.584C126.82 83.584 127.63 83.8773 128.196 84.464C128.772 85.04 129.06 85.8667 129.06 86.944C129.06 87.1787 129.044 87.4453 129.012 87.744C128.98 88.0427 128.942 88.288 128.9 88.48H123.94ZM125.684 85.2C125.161 85.2 124.745 85.36 124.436 85.68C124.137 85.9893 123.966 86.4427 123.924 87.04H127.06V86.768C127.06 85.7227 126.601 85.2 125.684 85.2Z" fill="black"/>
<circle cx="190" cy="88" r="24" fill="white"/>
<path fill-rule="evenodd" clip-rule="evenodd" d="M196.58 74.58L194.74 73.795L197.538 67.237L199.378 68.022L196.58 74.58ZM202.295 79.605L201.094 78.006L206.831 73.698L208.032 75.298L202.295 79.605ZM204.447 84.802L211.587 83.898L211.839 85.883L204.699 86.786L204.447 84.802ZM203.907 92.354L210.538 95.098L209.773 96.945L203.143 94.202L203.907 92.354ZM199.625 98.644L203.968 104.3L202.382 105.518L198.039 99.863L199.625 98.644ZM192.743 101.995L193.635 109.046L191.65 109.296L190.759 102.245L192.743 101.995ZM183.259 100.716L185.099 101.501L182.301 108.059L180.461 107.274L183.259 100.716ZM177.544 95.69L178.745 97.29L173.008 101.598L171.807 99.998L177.544 95.69ZM175.392 90.494L168.252 91.398L168 89.414L175.14 88.51L175.392 90.494ZM175.932 82.941L169.302 80.198L170.065 78.351L176.696 81.094L175.932 82.941ZM180.214 76.651L175.871 70.997L177.457 69.778L181.8 75.433L180.214 76.651ZM187.096 73.301L186.204 66.25L188.188 66L189.08 73.051L187.096 73.301ZM194.039 94.999H185.379L181.048 87.499L185.379 79.999H194.039L198.369 87.499L194.039 94.999ZM200.39 86.999L195.482 78.499C195.304 78.189 194.974 77.999 194.616 77.999H184.802C184.444 77.999 184.114 78.189 183.935 78.499L179.027 86.999C178.849 87.309 178.849 87.689 179.027 87.999L183.935 96.499C184.114 96.809 184.444 96.999 184.802 96.999H194.616C194.974 96.999 195.304 96.809 195.482 96.499L200.39 87.999C200.568 87.689 200.568 87.309 200.39 86.999Z" fill="#8C4FFF"/>
<circle cx="190" cy="146" r="24" fill="white"/>
<path fill-rule="evenodd" clip-rule="evenodd" d="M195.58 132.58L193.74 131.795L196.538 125.237L198.378 126.022L195.58 132.58ZM201.295 137.605L200.094 136.006L205.831 131.698L207.032 133.298L201.295 137.605ZM203.447 142.802L210.587 141.898L210.839 143.883L203.699 144.786L203.447 142.802ZM202.907 150.354L209.538 153.098L208.773 154.945L202.143 152.202L202.907 150.354ZM198.625 156.644L202.968 162.3L201.382 163.518L197.039 157.863L198.625 156.644ZM191.743 159.995L192.635 167.046L190.65 167.296L189.759 160.245L191.743 159.995ZM182.259 158.716L184.099 159.501L181.301 166.059L179.461 165.274L182.259 158.716ZM176.544 153.69L177.745 155.29L172.008 159.598L170.807 157.998L176.544 153.69ZM174.392 148.494L167.252 149.398L167 147.414L174.14 146.51L174.392 148.494ZM174.932 140.941L168.302 138.198L169.065 136.351L175.696 139.094L174.932 140.941ZM179.214 134.651L174.871 128.997L176.457 127.778L180.8 133.433L179.214 134.651ZM186.096 131.301L185.204 124.25L187.188 124L188.08 131.051L186.096 131.301ZM193.039 152.999H184.379L180.048 145.499L184.379 137.999H193.039L197.369 145.499L193.039 152.999ZM199.39 144.999L194.482 136.499C194.304 136.189 193.974 135.999 193.616 135.999H183.802C183.444 135.999 183.114 136.189 182.935 136.499L178.027 144.999C177.849 145.309 177.849 145.689 178.027 145.999L182.935 154.499C183.114 154.809 183.444 154.999 183.802 154.999H193.616C193.974 154.999 194.304 154.809 194.482 154.499L199.39 145.999C199.568 145.689 199.568 145.309 199.39 144.999Z" fill="#EC7211"/>
<circle cx="188" cy="201" r="24" fill="white"/>
<path fill-rule="evenodd" clip-rule="evenodd" d="M195.58 187.58L193.74 186.795L196.538 180.237L198.378 181.022L195.58 187.58ZM201.295 192.605L200.094 191.006L205.831 186.698L207.032 188.298L201.295 192.605ZM203.447 197.802L210.587 196.898L210.839 198.883L203.699 199.786L203.447 197.802ZM202.907 205.354L209.538 208.098L208.773 209.945L202.143 207.202L202.907 205.354ZM198.625 211.644L202.968 217.3L201.382 218.518L197.039 212.863L198.625 211.644ZM191.743 214.995L192.635 222.046L190.65 222.296L189.759 215.245L191.743 214.995ZM182.259 213.716L184.099 214.501L181.301 221.059L179.461 220.274L182.259 213.716ZM176.544 208.69L177.745 210.29L172.008 214.598L170.807 212.998L176.544 208.69ZM174.392 203.494L167.252 204.398L167 202.414L174.14 201.51L174.392 203.494ZM174.932 195.941L168.302 193.198L169.065 191.351L175.696 194.094L174.932 195.941ZM179.214 189.651L174.871 183.997L176.457 182.778L180.8 188.433L179.214 189.651ZM186.096 186.301L185.204 179.25L187.188 179L188.08 186.051L186.096 186.301ZM193.039 207.999H184.379L180.048 200.499L184.379 192.999H193.039L197.369 200.499L193.039 207.999ZM199.39 199.999L194.482 191.499C194.304 191.189 193.974 190.999 193.616 190.999H183.802C183.444 190.999 183.114 191.189 182.935 191.499L178.027 199.999C177.849 200.309 177.849 200.689 178.027 200.999L182.935 209.499C183.114 209.809 183.444 209.999 183.802 209.999H193.616C193.974 209.999 194.304 209.809 194.482 209.499L199.39 200.999C199.568 200.689 199.568 200.309 199.39 199.999Z" fill="#01A88D"/>
<rect x="747" y="67" width="137" height="42" stroke="#89BDEE" stroke-width="2"/>
<circle cx="772.5" cy="89.5" r="11.5" stroke="#414D5C" stroke-width="2"/>
<circle cx="772.5" cy="89.5" r="3.5" fill="#414D5C" stroke="#414D5C" stroke-width="2"/>
<circle cx="772.5" cy="89.5" r="7.5" stroke="#414D5C" stroke-width="2"/>
<path d="M800.971 96V86.832H797.595V84.912H806.747V86.832H803.371V96H800.971ZM812.022 96L811.83 95.28C811.499 95.5787 811.115 95.8187 810.678 96C810.251 96.1707 809.835 96.256 809.43 96.256C808.64 96.256 808.006 96.032 807.526 95.584C807.056 95.136 806.822 94.5387 806.822 93.792C806.822 93.28 806.95 92.832 807.206 92.448C807.462 92.0533 807.83 91.744 808.31 91.52C808.79 91.296 809.355 91.184 810.006 91.184C810.518 91.184 811.083 91.2533 811.702 91.392V90.592C811.702 90.1013 811.6 89.7653 811.398 89.584C811.195 89.4027 810.822 89.312 810.278 89.312C809.403 89.312 808.438 89.4773 807.382 89.808V88.256C807.776 88.0533 808.272 87.8933 808.87 87.776C809.467 87.648 810.075 87.584 810.694 87.584C811.792 87.584 812.592 87.808 813.094 88.256C813.606 88.6933 813.862 89.3867 813.862 90.336V96H812.022ZM810.086 94.688C810.352 94.688 810.624 94.6293 810.902 94.512C811.19 94.3947 811.456 94.2347 811.702 94.032V92.64C811.232 92.5653 810.811 92.528 810.438 92.528C809.51 92.528 809.046 92.9013 809.046 93.648C809.046 93.9787 809.136 94.2347 809.318 94.416C809.499 94.5973 809.755 94.688 810.086 94.688ZM815.988 96V87.824H817.908L818.196 89.04C818.623 88.5707 819.023 88.24 819.396 88.048C819.78 87.8453 820.185 87.744 820.612 87.744C820.815 87.744 821.028 87.76 821.252 87.792V89.952C820.953 89.888 820.623 89.856 820.26 89.856C819.567 89.856 818.921 89.9787 818.324 90.224V96H815.988ZM827.385 95.008C826.777 95.552 826.062 95.824 825.241 95.824C824.249 95.824 823.454 95.456 822.857 94.72C822.27 93.9733 821.977 92.9813 821.977 91.744C821.977 90.4853 822.275 89.4773 822.873 88.72C823.47 87.9627 824.27 87.584 825.273 87.584C825.721 87.584 826.142 87.664 826.537 87.824C826.931 87.984 827.283 88.2187 827.593 88.528L827.769 87.824H829.689V95.36C829.689 96.6613 829.326 97.6747 828.601 98.4C827.875 99.1253 826.873 99.488 825.593 99.488C824.558 99.488 823.577 99.2587 822.649 98.8V97.232C823.705 97.5627 824.617 97.728 825.385 97.728C826.089 97.728 826.595 97.5627 826.905 97.232C827.225 96.912 827.385 96.384 827.385 95.648V95.008ZM825.961 94.096C826.206 94.096 826.451 94.0587 826.697 93.984C826.953 93.8987 827.182 93.7867 827.385 93.648V89.712C826.947 89.4453 826.435 89.312 825.849 89.312C824.825 89.312 824.313 90.1013 824.313 91.68C824.313 92.5013 824.446 93.1093 824.713 93.504C824.979 93.8987 825.395 94.096 825.961 94.096ZM833.588 92.48C833.63 93.184 833.844 93.696 834.228 94.016C834.612 94.3253 835.214 94.48 836.036 94.48C836.75 94.48 837.582 94.3467 838.532 94.08V95.632C838.158 95.824 837.71 95.9733 837.188 96.08C836.676 96.1867 836.142 96.24 835.588 96.24C834.233 96.24 833.198 95.872 832.484 95.136C831.78 94.4 831.428 93.3227 831.428 91.904C831.428 90.5387 831.78 89.4773 832.484 88.72C833.188 87.9627 834.164 87.584 835.412 87.584C836.468 87.584 837.278 87.8773 837.844 88.464C838.42 89.04 838.708 89.8667 838.708 90.944C838.708 91.1787 838.692 91.4453 838.66 91.744C838.628 92.0427 838.59 92.288 838.548 92.48H833.588ZM835.332 89.2C834.809 89.2 834.393 89.36 834.084 89.68C833.785 89.9893 833.614 90.4427 833.572 91.04H836.708V90.768C836.708 89.7227 836.249 89.2 835.332 89.2ZM845.284 95.792C844.708 96.016 844.063 96.128 843.348 96.128C842.441 96.128 841.769 95.9147 841.332 95.488C840.905 95.0613 840.692 94.4 840.692 93.504V89.552H839.46V88.112L840.756 87.856L841.108 85.616H843.028V87.824H845.236V89.552H843.028V93.392C843.028 93.7333 843.113 93.9733 843.284 94.112C843.455 94.2507 843.743 94.32 844.148 94.32C844.479 94.32 844.857 94.288 845.284 94.224V95.792Z" fill="black"/>
<rect x="747" y="179" width="137" height="42" stroke="#89BDEE" stroke-width="2"/>
<circle cx="772.5" cy="201.5" r="11.5" stroke="#414D5C" stroke-width="2"/>
<circle cx="772.5" cy="201.5" r="3.5" fill="#414D5C" stroke="#414D5C" stroke-width="2"/>
<circle cx="772.5" cy="201.5" r="7.5" stroke="#414D5C" stroke-width="2"/>
<path d="M800.971 208V198.832H797.595V196.912H806.747V198.832H803.371V208H800.971ZM812.022 208L811.83 207.28C811.499 207.579 811.115 207.819 810.678 208C810.251 208.171 809.835 208.256 809.43 208.256C808.64 208.256 808.006 208.032 807.526 207.584C807.056 207.136 806.822 206.539 806.822 205.792C806.822 205.28 806.95 204.832 807.206 204.448C807.462 204.053 807.83 203.744 808.31 203.52C808.79 203.296 809.355 203.184 810.006 203.184C810.518 203.184 811.083 203.253 811.702 203.392V202.592C811.702 202.101 811.6 201.765 811.398 201.584C811.195 201.403 810.822 201.312 810.278 201.312C809.403 201.312 808.438 201.477 807.382 201.808V200.256C807.776 200.053 808.272 199.893 808.87 199.776C809.467 199.648 810.075 199.584 810.694 199.584C811.792 199.584 812.592 199.808 813.094 200.256C813.606 200.693 813.862 201.387 813.862 202.336V208H812.022ZM810.086 206.688C810.352 206.688 810.624 206.629 810.902 206.512C811.19 206.395 811.456 206.235 811.702 206.032V204.64C811.232 204.565 810.811 204.528 810.438 204.528C809.51 204.528 809.046 204.901 809.046 205.648C809.046 205.979 809.136 206.235 809.318 206.416C809.499 206.597 809.755 206.688 810.086 206.688ZM815.988 208V199.824H817.908L818.196 201.04C818.623 200.571 819.023 200.24 819.396 200.048C819.78 199.845 820.185 199.744 820.612 199.744C820.815 199.744 821.028 199.76 821.252 199.792V201.952C820.953 201.888 820.623 201.856 820.26 201.856C819.567 201.856 818.921 201.979 818.324 202.224V208H815.988ZM827.385 207.008C826.777 207.552 826.062 207.824 825.241 207.824C824.249 207.824 823.454 207.456 822.857 206.72C822.27 205.973 821.977 204.981 821.977 203.744C821.977 202.485 822.275 201.477 822.873 200.72C823.47 199.963 824.27 199.584 825.273 199.584C825.721 199.584 826.142 199.664 826.537 199.824C826.931 199.984 827.283 200.219 827.593 200.528L827.769 199.824H829.689V207.36C829.689 208.661 829.326 209.675 828.601 210.4C827.875 211.125 826.873 211.488 825.593 211.488C824.558 211.488 823.577 211.259 822.649 210.8V209.232C823.705 209.563 824.617 209.728 825.385 209.728C826.089 209.728 826.595 209.563 826.905 209.232C827.225 208.912 827.385 208.384 827.385 207.648V207.008ZM825.961 206.096C826.206 206.096 826.451 206.059 826.697 205.984C826.953 205.899 827.182 205.787 827.385 205.648V201.712C826.947 201.445 826.435 201.312 825.849 201.312C824.825 201.312 824.313 202.101 824.313 203.68C824.313 204.501 824.446 205.109 824.713 205.504C824.979 205.899 825.395 206.096 825.961 206.096ZM833.588 204.48C833.63 205.184 833.844 205.696 834.228 206.016C834.612 206.325 835.214 206.48 836.036 206.48C836.75 206.48 837.582 206.347 838.532 206.08V207.632C838.158 207.824 837.71 207.973 837.188 208.08C836.676 208.187 836.142 208.24 835.588 208.24C834.233 208.24 833.198 207.872 832.484 207.136C831.78 206.4 831.428 205.323 831.428 203.904C831.428 202.539 831.78 201.477 832.484 200.72C833.188 199.963 834.164 199.584 835.412 199.584C836.468 199.584 837.278 199.877 837.844 200.464C838.42 201.04 838.708 201.867 838.708 202.944C838.708 203.179 838.692 203.445 838.66 203.744C838.628 204.043 838.59 204.288 838.548 204.48H833.588ZM835.332 201.2C834.809 201.2 834.393 201.36 834.084 201.68C833.785 201.989 833.614 202.443 833.572 203.04H836.708V202.768C836.708 201.723 836.249 201.2 835.332 201.2ZM845.284 207.792C844.708 208.016 844.063 208.128 843.348 208.128C842.441 208.128 841.769 207.915 841.332 207.488C840.905 207.061 840.692 206.4 840.692 205.504V201.552H839.46V200.112L840.756 199.856L841.108 197.616H843.028V199.824H845.236V201.552H843.028V205.392C843.028 205.733 843.113 205.973 843.284 206.112C843.455 206.251 843.743 206.32 844.148 206.32C844.479 206.32 844.857 206.288 845.284 206.224V207.792Z" fill="black"/>
<rect x="747" y="123" width="137" height="42" stroke="#89BDEE" stroke-width="2"/>
<circle cx="772.5" cy="145.5" r="11.5" stroke="#414D5C" stroke-width="2"/>
<circle cx="772.5" cy="145.5" r="3.5" fill="#414D5C" stroke="#414D5C" stroke-width="2"/>
<circle cx="772.5" cy="145.5" r="7.5" stroke="#414D5C" stroke-width="2"/>
<path d="M800.971 152V142.832H797.595V140.912H806.747V142.832H803.371V152H800.971ZM812.022 152L811.83 151.28C811.499 151.579 811.115 151.819 810.678 152C810.251 152.171 809.835 152.256 809.43 152.256C808.64 152.256 808.006 152.032 807.526 151.584C807.056 151.136 806.822 150.539 806.822 149.792C806.822 149.28 806.95 148.832 807.206 148.448C807.462 148.053 807.83 147.744 808.31 147.52C808.79 147.296 809.355 147.184 810.006 147.184C810.518 147.184 811.083 147.253 811.702 147.392V146.592C811.702 146.101 811.6 145.765 811.398 145.584C811.195 145.403 810.822 145.312 810.278 145.312C809.403 145.312 808.438 145.477 807.382 145.808V144.256C807.776 144.053 808.272 143.893 808.87 143.776C809.467 143.648 810.075 143.584 810.694 143.584C811.792 143.584 812.592 143.808 813.094 144.256C813.606 144.693 813.862 145.387 813.862 146.336V152H812.022ZM810.086 150.688C810.352 150.688 810.624 150.629 810.902 150.512C811.19 150.395 811.456 150.235 811.702 150.032V148.64C811.232 148.565 810.811 148.528 810.438 148.528C809.51 148.528 809.046 148.901 809.046 149.648C809.046 149.979 809.136 150.235 809.318 150.416C809.499 150.597 809.755 150.688 810.086 150.688ZM815.988 152V143.824H817.908L818.196 145.04C818.623 144.571 819.023 144.24 819.396 144.048C819.78 143.845 820.185 143.744 820.612 143.744C820.815 143.744 821.028 143.76 821.252 143.792V145.952C820.953 145.888 820.623 145.856 820.26 145.856C819.567 145.856 818.921 145.979 818.324 146.224V152H815.988ZM827.385 151.008C826.777 151.552 826.062 151.824 825.241 151.824C824.249 151.824 823.454 151.456 822.857 150.72C822.27 149.973 821.977 148.981 821.977 147.744C821.977 146.485 822.275 145.477 822.873 144.72C823.47 143.963 824.27 143.584 825.273 143.584C825.721 143.584 826.142 143.664 826.537 143.824C826.931 143.984 827.283 144.219 827.593 144.528L827.769 143.824H829.689V151.36C829.689 152.661 829.326 153.675 828.601 154.4C827.875 155.125 826.873 155.488 825.593 155.488C824.558 155.488 823.577 155.259 822.649 154.8V153.232C823.705 153.563 824.617 153.728 825.385 153.728C826.089 153.728 826.595 153.563 826.905 153.232C827.225 152.912 827.385 152.384 827.385 151.648V151.008ZM825.961 150.096C826.206 150.096 826.451 150.059 826.697 149.984C826.953 149.899 827.182 149.787 827.385 149.648V145.712C826.947 145.445 826.435 145.312 825.849 145.312C824.825 145.312 824.313 146.101 824.313 147.68C824.313 148.501 824.446 149.109 824.713 149.504C824.979 149.899 825.395 150.096 825.961 150.096ZM833.588 148.48C833.63 149.184 833.844 149.696 834.228 150.016C834.612 150.325 835.214 150.48 836.036 150.48C836.75 150.48 837.582 150.347 838.532 150.08V151.632C838.158 151.824 837.71 151.973 837.188 152.08C836.676 152.187 836.142 152.24 835.588 152.24C834.233 152.24 833.198 151.872 832.484 151.136C831.78 150.4 831.428 149.323 831.428 147.904C831.428 146.539 831.78 145.477 832.484 144.72C833.188 143.963 834.164 143.584 835.412 143.584C836.468 143.584 837.278 143.877 837.844 144.464C838.42 145.04 838.708 145.867 838.708 146.944C838.708 147.179 838.692 147.445 838.66 147.744C838.628 148.043 838.59 148.288 838.548 148.48H833.588ZM835.332 145.2C834.809 145.2 834.393 145.36 834.084 145.68C833.785 145.989 833.614 146.443 833.572 147.04H836.708V146.768C836.708 145.723 836.249 145.2 835.332 145.2ZM845.284 151.792C844.708 152.016 844.063 152.128 843.348 152.128C842.441 152.128 841.769 151.915 841.332 151.488C840.905 151.061 840.692 150.4 840.692 149.504V145.552H839.46V144.112L840.756 143.856L841.108 141.616H843.028V143.824H845.236V145.552H843.028V149.392C843.028 149.733 843.113 149.973 843.284 150.112C843.455 150.251 843.743 150.32 844.148 150.32C844.479 150.32 844.857 150.288 845.284 150.224V151.792Z" fill="black"/>
<circle cx="680" cy="144" r="24" fill="white"/>
<path fill-rule="evenodd" clip-rule="evenodd" d="M685.58 130.58L683.74 129.795L686.538 123.237L688.378 124.022L685.58 130.58ZM691.295 135.605L690.094 134.006L695.831 129.698L697.032 131.298L691.295 135.605ZM693.447 140.802L700.587 139.898L700.839 141.883L693.699 142.786L693.447 140.802ZM692.907 148.354L699.538 151.098L698.773 152.945L692.143 150.202L692.907 148.354ZM688.625 154.644L692.968 160.3L691.382 161.518L687.039 155.863L688.625 154.644ZM681.743 157.995L682.635 165.046L680.65 165.296L679.759 158.245L681.743 157.995ZM672.259 156.716L674.099 157.501L671.301 164.059L669.461 163.274L672.259 156.716ZM666.544 151.69L667.745 153.29L662.008 157.598L660.807 155.998L666.544 151.69ZM664.392 146.494L657.252 147.398L657 145.414L664.14 144.51L664.392 146.494ZM664.932 138.941L658.302 136.198L659.065 134.351L665.696 137.094L664.932 138.941ZM669.214 132.651L664.871 126.997L666.457 125.778L670.8 131.433L669.214 132.651ZM676.096 129.301L675.204 122.25L677.188 122L678.08 129.051L676.096 129.301ZM683.039 150.999H674.379L670.048 143.499L674.379 135.999H683.039L687.369 143.499L683.039 150.999ZM689.39 142.999L684.482 134.499C684.304 134.189 683.974 133.999 683.616 133.999H673.802C673.444 133.999 673.114 134.189 672.935 134.499L668.027 142.999C667.849 143.309 667.849 143.689 668.027 143.999L672.935 152.499C673.114 152.809 673.444 152.999 673.802 152.999H683.616C683.974 152.999 684.304 152.809 684.482 152.499L689.39 143.999C689.568 143.689 689.568 143.309 689.39 142.999Z" fill="#EC7211"/>
<circle cx="644" cy="204" r="24" fill="white"/>
<path fill-rule="evenodd" clip-rule="evenodd" d="M649.58 190.58L647.74 189.795L650.538 183.237L652.378 184.022L649.58 190.58ZM655.295 195.605L654.094 194.006L659.831 189.698L661.032 191.298L655.295 195.605ZM657.447 200.802L664.587 199.898L664.839 201.883L657.699 202.786L657.447 200.802ZM656.907 208.354L663.538 211.098L662.773 212.945L656.143 210.202L656.907 208.354ZM652.625 214.644L656.968 220.3L655.382 221.518L651.039 215.863L652.625 214.644ZM645.743 217.995L646.635 225.046L644.65 225.296L643.759 218.245L645.743 217.995ZM636.259 216.716L638.099 217.501L635.301 224.059L633.461 223.274L636.259 216.716ZM630.544 211.69L631.745 213.29L626.008 217.598L624.807 215.998L630.544 211.69ZM628.392 206.494L621.252 207.398L621 205.414L628.14 204.51L628.392 206.494ZM628.932 198.941L622.302 196.198L623.065 194.351L629.696 197.094L628.932 198.941ZM633.214 192.651L628.871 186.997L630.457 185.778L634.8 191.433L633.214 192.651ZM640.096 189.301L639.204 182.25L641.188 182L642.08 189.051L640.096 189.301ZM647.039 210.999H638.379L634.048 203.499L638.379 195.999H647.039L651.369 203.499L647.039 210.999ZM653.39 202.999L648.482 194.499C648.304 194.189 647.974 193.999 647.616 193.999H637.802C637.444 193.999 637.114 194.189 636.935 194.499L632.027 202.999C631.849 203.309 631.849 203.689 632.027 203.999L636.935 212.499C637.114 212.809 637.444 212.999 637.802 212.999H647.616C647.974 212.999 648.304 212.809 648.482 212.499L653.39 203.999C653.568 203.689 653.568 203.309 653.39 202.999Z" fill="#EC7211"/>
<circle cx="705" cy="203" r="24" fill="white"/>
<path fill-rule="evenodd" clip-rule="evenodd" d="M712.58 189.58L710.74 188.795L713.538 182.237L715.378 183.022L712.58 189.58ZM718.295 194.605L717.094 193.006L722.831 188.698L724.032 190.298L718.295 194.605ZM720.447 199.802L727.587 198.898L727.839 200.883L720.699 201.786L720.447 199.802ZM719.907 207.354L726.538 210.098L725.773 211.945L719.143 209.202L719.907 207.354ZM715.625 213.644L719.968 219.3L718.382 220.518L714.039 214.863L715.625 213.644ZM708.743 216.995L709.635 224.046L707.65 224.296L706.759 217.245L708.743 216.995ZM699.259 215.716L701.099 216.501L698.301 223.059L696.461 222.274L699.259 215.716ZM693.544 210.69L694.745 212.29L689.008 216.598L687.807 214.998L693.544 210.69ZM691.392 205.494L684.252 206.398L684 204.414L691.14 203.51L691.392 205.494ZM691.932 197.941L685.302 195.198L686.065 193.351L692.696 196.094L691.932 197.941ZM696.214 191.651L691.871 185.997L693.457 184.778L697.8 190.433L696.214 191.651ZM703.096 188.301L702.204 181.25L704.188 181L705.08 188.051L703.096 188.301ZM710.039 209.999H701.379L697.048 202.499L701.379 194.999H710.039L714.369 202.499L710.039 209.999ZM716.39 201.999L711.482 193.499C711.304 193.189 710.974 192.999 710.616 192.999H700.802C700.444 192.999 700.114 193.189 699.935 193.499L695.027 201.999C694.849 202.309 694.849 202.689 695.027 202.999L699.935 211.499C700.114 211.809 700.444 211.999 700.802 211.999H710.616C710.974 211.999 711.304 211.809 711.482 211.499L716.39 202.999C716.568 202.689 716.568 202.309 716.39 201.999Z" fill="#01A88D"/>
<circle cx="704" cy="95" r="24" fill="white"/>
<path fill-rule="evenodd" clip-rule="evenodd" d="M710.58 81.58L708.74 80.795L711.538 74.237L713.378 75.022L710.58 81.58ZM716.295 86.605L715.094 85.006L720.831 80.698L722.032 82.298L716.295 86.605ZM718.447 91.802L725.587 90.898L725.839 92.883L718.699 93.786L718.447 91.802ZM717.907 99.354L724.538 102.098L723.773 103.945L717.143 101.202L717.907 99.354ZM713.625 105.644L717.968 111.3L716.382 112.518L712.039 106.863L713.625 105.644ZM706.743 108.995L707.635 116.046L705.65 116.296L704.759 109.245L706.743 108.995ZM697.259 107.716L699.099 108.501L696.301 115.059L694.461 114.274L697.259 107.716ZM691.544 102.69L692.745 104.29L687.008 108.598L685.807 106.998L691.544 102.69ZM689.392 97.494L682.252 98.398L682 96.414L689.14 95.51L689.392 97.494ZM689.932 89.941L683.302 87.198L684.065 85.351L690.696 88.094L689.932 89.941ZM694.214 83.651L689.871 77.997L691.457 76.778L695.8 82.433L694.214 83.651ZM701.096 80.301L700.204 73.25L702.188 73L703.08 80.051L701.096 80.301ZM708.039 101.999H699.379L695.048 94.499L699.379 86.999H708.039L712.369 94.499L708.039 101.999ZM714.39 93.999L709.482 85.499C709.304 85.189 708.974 84.999 708.616 84.999H698.802C698.444 84.999 698.114 85.189 697.935 85.499L693.027 93.999C692.849 94.309 692.849 94.689 693.027 94.999L697.935 103.499C698.114 103.809 698.444 103.999 698.802 103.999H708.616C708.974 103.999 709.304 103.809 709.482 103.499L714.39 94.999C714.568 94.689 714.568 94.309 714.39 93.999Z" fill="#8C4FFF"/>
<circle cx="644" cy="96" r="24" fill="white"/>
<path fill-rule="evenodd" clip-rule="evenodd" d="M651.58 82.58L649.74 81.795L652.538 75.237L654.378 76.022L651.58 82.58ZM657.295 87.605L656.094 86.006L661.831 81.698L663.032 83.298L657.295 87.605ZM659.447 92.802L666.587 91.898L666.839 93.883L659.699 94.786L659.447 92.802ZM658.907 100.354L665.538 103.098L664.773 104.945L658.143 102.202L658.907 100.354ZM654.625 106.644L658.968 112.3L657.382 113.518L653.039 107.863L654.625 106.644ZM647.743 109.995L648.635 117.046L646.65 117.296L645.759 110.245L647.743 109.995ZM638.259 108.716L640.099 109.501L637.301 116.059L635.461 115.274L638.259 108.716ZM632.544 103.69L633.745 105.29L628.008 109.598L626.807 107.998L632.544 103.69ZM630.392 98.494L623.252 99.398L623 97.414L630.14 96.51L630.392 98.494ZM630.932 90.941L624.302 88.198L625.065 86.351L631.696 89.094L630.932 90.941ZM635.214 84.651L630.871 78.997L632.457 77.778L636.8 83.433L635.214 84.651ZM642.096 81.301L641.204 74.25L643.188 74L644.08 81.051L642.096 81.301ZM649.039 102.999H640.379L636.048 95.499L640.379 87.999H649.039L653.369 95.499L649.039 102.999ZM655.39 94.999L650.482 86.499C650.304 86.189 649.974 85.999 649.616 85.999H639.802C639.444 85.999 639.114 86.189 638.935 86.499L634.027 94.999C633.849 95.309 633.849 95.689 634.027 95.999L638.935 104.499C639.114 104.809 639.444 104.999 639.802 104.999H649.616C649.974 104.999 650.304 104.809 650.482 104.499L655.39 95.999C655.568 95.689 655.568 95.309 655.39 94.999Z" fill="#01A88D"/>
</svg>
